<?xml version="1.0" standalone="no"?>
<!DOCTYPE svg PUBLIC "-//W3C//DTD SVG 20010904//EN"
 "http://www.w3.org/TR/2001/REC-SVG-20010904/DTD/svg10.dtd">
<svg version="1.0" xmlns="http://www.w3.org/2000/svg"
 width="171.000000pt" height="186.000000pt" viewBox="0 0 171.000000 186.000000"
 preserveAspectRatio="xMidYMid meet">

<g transform="translate(0.000000,186.000000) scale(0.100000,-0.100000)"
fill="#000000" stroke="none">
<path d="M777 1734 c-59 -30 -105 -59 -102 -64 3 -5 -3 -14 -14 -19 -29 -16
-39 -13 -17 4 39 30 3 13 -159 -72 -91 -48 -160 -90 -154 -93 7 -5 5 -10 -6
-14 -23 -9 -27 -8 -19 5 8 14 11 15 -103 -44 l-93 -47 0 -428 0 -428 82 -51
c46 -28 153 -95 238 -148 85 -54 211 -133 279 -176 l124 -78 38 20 c22 11 39
22 39 25 0 2 -9 0 -21 -6 -11 -7 -23 -9 -26 -7 -5 5 49 37 62 37 3 0 3 -5 -1
-12 -7 -11 90 39 206 107 30 17 151 85 268 151 116 65 212 122 212 127 0 4 -5
5 -10 2 -7 -4 -10 140 -10 424 0 283 -3 431 -10 434 -6 3 -5 4 2 3 8 -2 15
-27 19 -72 l5 -69 2 70 2 70 -128 72 c-70 39 -149 84 -176 99 -27 15 -46 22
-41 14 6 -10 4 -12 -9 -7 -10 4 -21 7 -24 7 -4 0 -1 4 5 8 9 5 -10 21 -54 48
-80 47 -88 50 -78 34 6 -10 4 -12 -9 -7 -10 4 -21 7 -24 7 -4 0 -1 4 5 8 9 5
-20 28 -85 65 -55 31 -101 57 -103 56 -2 0 -53 -25 -112 -55z m215 -11 c43
-26 76 -48 74 -50 -2 -2 -43 19 -91 46 l-87 51 -94 -50 c-52 -28 -99 -50 -106
-50 -7 0 34 25 92 55 58 30 111 52 119 49 8 -2 50 -26 93 -51z m45 -50 c34
-19 67 -32 72 -28 11 6 125 -54 117 -62 -3 -3 -28 9 -57 26 -28 18 -53 30 -56
28 -4 -5 75 -50 355 -207 l112 -62 0 -418 0 -418 -157 -88 c-87 -48 -219 -122
-293 -164 -74 -43 -171 -96 -215 -120 l-81 -43 -84 52 c-47 29 -148 92 -225
141 -77 48 -195 122 -263 165 l-122 76 2 411 3 411 78 40 c43 21 76 41 74 44
-3 2 -41 -14 -86 -37 l-81 -41 0 -417 1 -417 167 -104 c92 -58 250 -157 351
-220 101 -64 191 -115 200 -113 14 2 14 1 2 -7 -18 -12 19 -33 -386 222 l-340
215 -3 423 -2 424 85 43 c48 23 90 40 96 37 9 -6 232 105 225 112 -2 2 -43
-17 -90 -43 -48 -25 -89 -44 -91 -42 -8 8 272 148 286 143 8 -2 68 24 134 59
l120 64 45 -25 c25 -14 73 -41 107 -60z m326 -160 c147 -84 212 -123 205 -123
-9 0 -197 103 -258 141 -71 45 -38 34 53 -18z m222 -1003 c-3 -5 -10 -10 -15
-10 -5 0 -35 -15 -67 -34 -144 -84 -566 -316 -569 -313 -4 4 637 366 649 367
5 0 5 -4 2 -10z"/>
<path d="M575 1605 c-52 -32 -40 -32 16 0 24 14 40 25 34 25 -5 0 -28 -11 -50
-25z"/>
<path d="M518 1371 c-55 -19 -77 -38 -129 -108 -31 -42 -39 -61 -39 -95 0 -32
5 -46 20 -56 18 -11 20 -23 20 -130 l0 -118 -33 -32 c-18 -18 -36 -32 -40 -32
-4 0 -21 16 -38 35 -38 43 -68 45 -97 5 -19 -25 -22 -42 -22 -115 0 -83 1 -86
26 -95 14 -6 91 -10 172 -10 l147 0 78 78 77 77 0 226 0 225 -46 55 c-51 59
-59 65 -69 49 -3 -6 -2 -9 4 -8 6 2 31 -19 56 -47 l45 -50 0 -215 0 -215 -78
-78 -77 -77 -138 0 -137 0 0 94 c0 74 3 96 16 107 14 11 20 9 43 -19 20 -25
33 -32 61 -32 29 1 41 9 68 42 l32 40 0 177 c0 198 -5 181 86 284 l40 46 63
-74 63 -74 55 62 c30 34 58 63 63 65 9 3 50 -51 50 -65 -1 -4 -12 5 -25 22
l-25 30 -47 -54 c-27 -30 -52 -61 -57 -69 -5 -8 -11 -117 -14 -241 l-5 -226
53 -58 52 -58 87 6 c47 2 212 10 366 16 154 6 283 14 287 18 4 3 -64 3 -150
-1 -86 -3 -246 -6 -354 -7 l-196 -1 -56 63 c-49 55 -56 67 -56 105 l0 42 93 0
94 0 32 -40 32 -40 287 1 c158 1 277 4 264 6 -19 4 -21 7 -11 19 9 11 7 14
-10 14 -18 0 -21 6 -21 38 0 34 -2 37 -30 37 -27 0 -30 -3 -36 -43 -5 -37 -10
-43 -28 -40 -20 3 -21 8 -21 123 l0 120 30 -3 c17 -2 27 -1 23 4 -12 11 -68
15 -68 4 0 -6 -13 -10 -30 -10 -26 0 -30 -3 -30 -29 0 -16 4 -31 9 -33 11 -4
19 -182 9 -185 -25 -9 -338 -2 -338 7 0 6 22 10 48 10 36 0 56 6 75 23 27 23
27 23 27 166 l0 143 -31 40 c-17 21 -29 41 -27 43 2 3 21 -17 41 -44 35 -45
37 -53 37 -119 l0 -71 33 -3 32 -3 3 -72 c3 -69 4 -73 27 -73 28 0 55 9 55 19
0 4 -10 7 -22 7 -22 -1 -23 1 -20 83 4 89 -1 101 -45 101 -21 0 -23 5 -23 46
0 32 7 56 25 82 35 51 33 66 -7 58 -105 -22 -112 -21 -138 18 -14 20 -27 36
-30 36 -3 0 -34 -9 -70 -20 l-65 -20 -25 28 c-14 15 -33 38 -41 50 l-16 22
-88 -31 -87 -31 -37 35 -36 35 -47 -17z m341 -112 l40 -62 0 -148 -1 -148 -85
-3 c-53 -2 -87 1 -90 7 -2 6 -2 80 -1 166 3 147 4 156 27 179 12 14 30 35 38
48 9 12 19 22 24 22 5 0 26 -28 48 -61z m189 29 c18 -18 15 -33 -4 -17 -13 11
-22 5 -65 -42 l-49 -54 0 -148 c0 -96 -4 -146 -10 -142 -6 4 -10 69 -10 163 0
153 -1 158 -26 195 -14 21 -24 41 -21 43 5 5 30 -25 54 -62 10 -18 15 -15 59
29 54 52 55 52 72 35z m25 -77 l37 -48 0 -135 0 -135 -77 1 -78 1 -1 138 -2
138 37 44 c20 24 38 44 41 44 3 1 23 -21 43 -48z m377 -366 c0 -14 -7 -28 -15
-32 -21 -8 -24 -3 -18 30 7 34 33 36 33 2z"/>
<path d="M1010 1066 l0 -116 25 0 25 0 0 105 c0 58 0 108 0 113 0 4 -11 8 -25
10 l-25 3 0 -115z m38 -4 c2 -86 0 -102 -13 -102 -12 0 -15 17 -15 106 0 80 3
105 13 102 8 -3 13 -36 15 -106z"/>
<path d="M1280 1239 c-19 -4 -38 -5 -42 -3 -12 7 -10 4 17 -50 l25 -49 15 37
c8 20 20 36 25 36 12 0 14 27 3 33 -5 2 -24 0 -43 -4z"/>
<path d="M1420 1048 c0 -4 11 -15 25 -24 14 -9 25 -20 25 -25 0 -5 -11 -9 -25
-9 -18 0 -25 -5 -25 -20 0 -16 6 -20 33 -19 30 2 30 2 5 6 -35 5 -37 23 -4 23
21 0 25 6 28 33 2 22 7 31 18 29 8 -2 11 0 7 5 -11 10 -87 11 -87 1z"/>
<path d="M1524 991 c0 -11 5 -17 13 -14 10 4 11 9 2 19 -15 18 -15 18 -15 -5z"/>
<path d="M629 683 c-12 -16 -12 -17 2 -6 9 7 19 10 22 6 13 -12 7 -32 -10 -36
-12 -3 -9 -5 8 -6 37 -2 53 18 32 41 -20 23 -37 23 -54 1z"/>
<path d="M1601 1224 c0 -11 3 -14 6 -6 3 7 2 16 -1 19 -3 4 -6 -2 -5 -13z"/>
<path d="M1602 845 c0 -16 2 -22 5 -12 2 9 2 23 0 30 -3 6 -5 -1 -5 -18z"/>
<path d="M1602 760 c0 -14 2 -19 5 -12 2 6 2 18 0 25 -3 6 -5 1 -5 -13z"/>
<path d="M1603 620 c0 -47 2 -66 4 -42 2 23 2 61 0 85 -2 23 -4 4 -4 -43z"/>
<path d="M1414 332 c-13 -8 -28 -106 -15 -98 5 3 12 18 16 33 11 46 45 73 45
37 0 -10 7 -14 23 -12 12 2 21 9 20 16 -2 6 3 12 10 12 15 0 47 -61 47 -90 0
-23 -6 -25 -25 -7 -15 15 -95 17 -95 2 0 -5 21 -13 47 -16 39 -5 44 -7 26 -14
-13 -4 -23 -11 -23 -16 0 -5 -16 -9 -36 -9 -22 0 -33 4 -29 10 7 11 -12 40
-25 40 -11 0 1 -43 14 -52 18 -12 131 -9 144 4 7 7 12 40 12 78 0 38 -5 71
-12 78 -13 13 -126 16 -144 4z"/>
<path d="M1453 266 c2 -6 14 -11 27 -11 13 0 25 5 27 11 2 6 -10 11 -27 11
-17 0 -29 -5 -27 -11z"/>
</g>
</svg>
